<?xml version='1.0' encoding='iso-8859-1'?>
<svg version="1.1" xmlns="http://www.w3.org/2000/svg" viewBox="0 0 463 463" xmlns:xlink="http://www.w3.org/1999/xlink" enable-background="new 0 0 463 463">
  <g>
    <path d="m463,23.5c0-4.142-3.358-7.5-7.5-7.5h-1.734c-3.138-9.29-11.93-16-22.266-16h-400c-10.336,0-19.128,6.71-22.266,16h-1.734c-4.142,0-7.5,3.358-7.5,7.5 0,46.956 13.898,91.77 39.726,129.768 7.124,81.773 20.145,194.383 42.865,291.66 2.485,10.64 11.904,18.072 22.905,18.072h252.008c11.001,0 20.42-7.432 22.906-18.073 22.719-97.277 35.741-209.887 42.864-291.66 25.828-37.997 39.726-82.811 39.726-129.767zm-15.994,17.637c-2.419,21.638-9.242,42.197-19.695,61.019 1.837-25.975 2.875-45.336 3.354-55.156h0.836c5.937-7.10543e-15 11.363-2.218 15.505-5.863zm-36.62,86.17c-39.018,48.677-104.644,80.693-178.886,80.693s-139.868-32.016-178.886-80.693c-3.033-38.31-4.615-67.177-5.261-80.307h368.293c-0.645,13.13-2.227,41.997-5.26,80.307zm-378.05-80.307c0.479,9.819 1.516,29.181 3.354,55.156-10.453-18.823-17.276-39.381-19.696-61.019 4.142,3.645 9.568,5.863 15.506,5.863h0.836zm35.891,117.959c43.667,37.428 101.651,58.041 163.273,58.041s119.606-20.613 163.273-58.041c0.843-0.722 1.664-1.458 2.492-2.189-4.008,4.755-8.228,9.37-12.676,13.819-40.892,40.891-95.26,63.411-153.089,63.411s-112.197-22.52-153.089-63.411c-4.449-4.449-8.668-9.064-12.676-13.819 0.828,0.731 1.649,1.467 2.492,2.189zm-36.727-149.959h400c4.687,0 8.5,3.813 8.5,8.5s-3.813,8.5-8.5,8.5h-400c-4.687,0-8.5-3.813-8.5-8.5s3.813-8.5 8.5-8.5zm334.303,426.516c-0.892,3.818-4.305,6.484-8.299,6.484h-252.008c-3.995,0-7.407-2.667-8.299-6.484-20.439-87.515-32.972-187.648-40.405-266.127 3.522,4.039 7.187,7.981 11.012,11.806 43.725,43.725 101.86,67.805 163.696,67.805s119.971-24.08 163.695-67.805c3.825-3.825 7.491-7.767 11.012-11.806-7.432,78.479-19.965,178.612-40.404,266.127z"/>
  </g>
</svg>
